# xmcd
#
# Track frame offsets: 
#        150
#        15041
#        27729
#
# Disc length: 567 seconds
#
# Revision: 0
# Processed by: cddbd v1.5.2PL0 Copyright (c) Steve Scherf et al.
# Submitted via: ExactAudioCopyFreeDBPlugin 1.0
#
DISCID=16023503
DTITLE=Münchner Zwietracht - Poldi and Schweini
DYEAR=2006
DGENRE=Country
TTITLE0=Poldi und Schweini
TTITLE1=Oh du lieber Augustin
TTITLE2=Holladieh, Holladioh
EXTD=
EXTT0=
EXTT1=
EXTT2=
PLAYORDER=
